# xmcd
#
# Track frame offsets:
#	150
#	16962
#	30597
#	47845
#	63619
#	82281
#	98519
#	113827
#	133909
#	145419
#
# Disc length: 2176 seconds
#
# Revision: 1
# Processed by: cddbd v1.5.2PL0 Copyright (c) Steve Scherf et al.
# Submitted via: audiograbber 1.83.01
#
DISCID=8c087e0a
DTITLE=Confederate Railroad - Notorious
DYEAR=1994
DGENRE=Country
TTITLE0=Daddy Never Was The Cadillac Kind
TTITLE1=Summer In Dixie
TTITLE2=I Am Just A Rebel
TTITLE3=Elvis And Andy
TTITLE4=Notorious
TTITLE5=Redneck Romeo
TTITLE6=Hunger Pains
TTITLE7=Roll The Dice
TTITLE8=Move Over Madonna
TTITLE9=Three Verses
EXTD=
EXTT0=
EXTT1=
EXTT2=
EXTT3=
EXTT4=
EXTT5=
EXTT6=
EXTT7=
EXTT8=
EXTT9=
PLAYORDER=
